%TF.GenerationSoftware,KiCad,Pcbnew,8.0.2*%
%TF.CreationDate,2025-07-17T16:33:10+07:00*%
%TF.ProjectId,PicoLink,5069636f-4c69-46e6-9b2e-6b696361645f,rev?*%
%TF.SameCoordinates,Original*%
%TF.FileFunction,Soldermask,Bot*%
%TF.FilePolarity,Negative*%
%FSLAX46Y46*%
G04 Gerber Fmt 4.6, Leading zero omitted, Abs format (unit mm)*
G04 Created by KiCad (PCBNEW 8.0.2) date 2025-07-17 16:33:10*
%MOMM*%
%LPD*%
G01*
G04 APERTURE LIST*
G04 Aperture macros list*
%AMRoundRect*
0 Rectangle with rounded corners*
0 $1 Rounding radius*
0 $2 $3 $4 $5 $6 $7 $8 $9 X,Y pos of 4 corners*
0 Add a 4 corners polygon primitive as box body*
4,1,4,$2,$3,$4,$5,$6,$7,$8,$9,$2,$3,0*
0 Add four circle primitives for the rounded corners*
1,1,$1+$1,$2,$3*
1,1,$1+$1,$4,$5*
1,1,$1+$1,$6,$7*
1,1,$1+$1,$8,$9*
0 Add four rect primitives between the rounded corners*
20,1,$1+$1,$2,$3,$4,$5,0*
20,1,$1+$1,$4,$5,$6,$7,0*
20,1,$1+$1,$6,$7,$8,$9,0*
20,1,$1+$1,$8,$9,$2,$3,0*%
G04 Aperture macros list end*
%ADD10C,2.700000*%
%ADD11C,0.650000*%
%ADD12R,1.700000X1.700000*%
%ADD13O,1.700000X1.700000*%
%ADD14RoundRect,0.250000X0.600000X0.600000X-0.600000X0.600000X-0.600000X-0.600000X0.600000X-0.600000X0*%
%ADD15C,1.700000*%
%ADD16C,1.800000*%
G04 APERTURE END LIST*
D10*
%TO.C,H6*%
X130100000Y-79200000D03*
%TD*%
%TO.C,H5*%
X176350000Y-79150000D03*
%TD*%
D11*
%TO.C,J2*%
X173895000Y-96890000D03*
X173895002Y-91110000D03*
%TD*%
D10*
%TO.C,H3*%
X176100000Y-107700000D03*
%TD*%
%TO.C,H4*%
X130500000Y-107900000D03*
%TD*%
D12*
%TO.C,J8*%
X148430000Y-107600000D03*
D13*
X150970000Y-107600000D03*
X153510000Y-107600000D03*
X156050000Y-107600000D03*
X158590000Y-107600000D03*
X161130000Y-107600000D03*
X163670000Y-107600000D03*
%TD*%
D12*
%TO.C,J4*%
X139850000Y-89775000D03*
D13*
X139850000Y-92315000D03*
X139850000Y-94855000D03*
%TD*%
D14*
%TO.C,J3*%
X131900000Y-88920000D03*
D15*
X129360000Y-88920000D03*
X131900000Y-91460000D03*
X129360000Y-91460000D03*
X131900000Y-94000000D03*
X129360000Y-94000000D03*
X131900000Y-96540000D03*
X129360000Y-96540000D03*
X131900000Y-99080000D03*
X129360000Y-99080000D03*
%TD*%
D12*
%TO.C,J7*%
X143800000Y-89760000D03*
D13*
X143800000Y-92300000D03*
X143800000Y-94840000D03*
%TD*%
D12*
%TO.C,J9*%
X163000001Y-97140003D03*
D13*
X163000000Y-94600000D03*
X163000001Y-92060003D03*
%TD*%
D16*
X170900000Y-82200000D03*
X170850000Y-78837500D03*
X136550000Y-91750000D03*
X137300000Y-95800000D03*
X137109099Y-98909099D03*
X137301471Y-102600000D03*
X152600000Y-98825000D03*
X159050000Y-98750000D03*
M02*
