%TF.GenerationSoftware,KiCad,Pcbnew,8.0.2*%
%TF.CreationDate,2025-07-17T16:33:10+07:00*%
%TF.ProjectId,PicoLink,5069636f-4c69-46e6-9b2e-6b696361645f,rev?*%
%TF.SameCoordinates,Original*%
%TF.FileFunction,Copper,L2,Bot*%
%TF.FilePolarity,Positive*%
%FSLAX46Y46*%
G04 Gerber Fmt 4.6, Leading zero omitted, Abs format (unit mm)*
G04 Created by KiCad (PCBNEW 8.0.2) date 2025-07-17 16:33:10*
%MOMM*%
%LPD*%
G01*
G04 APERTURE LIST*
G04 Aperture macros list*
%AMRoundRect*
0 Rectangle with rounded corners*
0 $1 Rounding radius*
0 $2 $3 $4 $5 $6 $7 $8 $9 X,Y pos of 4 corners*
0 Add a 4 corners polygon primitive as box body*
4,1,4,$2,$3,$4,$5,$6,$7,$8,$9,$2,$3,0*
0 Add four circle primitives for the rounded corners*
1,1,$1+$1,$2,$3*
1,1,$1+$1,$4,$5*
1,1,$1+$1,$6,$7*
1,1,$1+$1,$8,$9*
0 Add four rect primitives between the rounded corners*
20,1,$1+$1,$2,$3,$4,$5,0*
20,1,$1+$1,$4,$5,$6,$7,0*
20,1,$1+$1,$6,$7,$8,$9,0*
20,1,$1+$1,$8,$9,$2,$3,0*%
G04 Aperture macros list end*
%TA.AperFunction,ComponentPad*%
%ADD10R,1.700000X1.700000*%
%TD*%
%TA.AperFunction,ComponentPad*%
%ADD11O,1.700000X1.700000*%
%TD*%
%TA.AperFunction,ComponentPad*%
%ADD12RoundRect,0.250000X0.600000X0.600000X-0.600000X0.600000X-0.600000X-0.600000X0.600000X-0.600000X0*%
%TD*%
%TA.AperFunction,ComponentPad*%
%ADD13C,1.700000*%
%TD*%
%TA.AperFunction,ViaPad*%
%ADD14C,1.800000*%
%TD*%
%TA.AperFunction,Conductor*%
%ADD15C,0.200000*%
%TD*%
G04 APERTURE END LIST*
D10*
%TO.P,J8,1,Pin_1*%
%TO.N,/SIGROK_IN1*%
X148430000Y-107600000D03*
D11*
%TO.P,J8,2,Pin_2*%
%TO.N,/SIGROK_IN2*%
X150970000Y-107600000D03*
%TO.P,J8,3,Pin_3*%
%TO.N,/SIGROK_IN3*%
X153510000Y-107600000D03*
%TO.P,J8,4,Pin_4*%
%TO.N,/SIGROK_IN4*%
X156050000Y-107600000D03*
%TO.P,J8,5,Pin_5*%
%TO.N,/SIGROK_IN5*%
X158590000Y-107600000D03*
%TO.P,J8,6,Pin_6*%
%TO.N,/SIGROK_IN6*%
X161130000Y-107600000D03*
%TO.P,J8,7,Pin_7*%
%TO.N,/SIGROK_IN7*%
X163670000Y-107600000D03*
%TD*%
D10*
%TO.P,J4,1,Pin_1*%
%TO.N,Net-(J4-Pin_1)*%
X139850000Y-89775000D03*
D11*
%TO.P,J4,2,Pin_2*%
%TO.N,GND*%
X139850000Y-92315000D03*
%TO.P,J4,3,Pin_3*%
%TO.N,Net-(J4-Pin_3)*%
X139850000Y-94855000D03*
%TD*%
D12*
%TO.P,J3,1,VTref*%
%TO.N,+3.3V*%
X131900000Y-88920000D03*
D13*
%TO.P,J3,2,SWDIO/TMS*%
%TO.N,Net-(J3-SWDIO{slash}TMS)*%
X129360000Y-88920000D03*
%TO.P,J3,3,GND*%
%TO.N,GND*%
X131900000Y-91460000D03*
%TO.P,J3,4,SWCLK/TCK*%
%TO.N,Net-(J3-SWCLK{slash}TCK)*%
X129360000Y-91460000D03*
%TO.P,J3,5,GND*%
%TO.N,GND*%
X131900000Y-94000000D03*
%TO.P,J3,6,SWO/TDO*%
%TO.N,unconnected-(J3-SWO{slash}TDO-Pad6)*%
X129360000Y-94000000D03*
%TO.P,J3,7,KEY*%
%TO.N,unconnected-(J3-KEY-Pad7)*%
X131900000Y-96540000D03*
%TO.P,J3,8,NC/TDI*%
%TO.N,unconnected-(J3-NC{slash}TDI-Pad8)*%
X129360000Y-96540000D03*
%TO.P,J3,9,GNDDetect*%
%TO.N,GND*%
X131900000Y-99080000D03*
%TO.P,J3,10,~{RESET}*%
%TO.N,Net-(J3-~{RESET})*%
X129360000Y-99080000D03*
%TD*%
D10*
%TO.P,J7,1,Pin_1*%
%TO.N,Net-(J7-Pin_1)*%
X143800000Y-89760000D03*
D11*
%TO.P,J7,2,Pin_2*%
%TO.N,GND*%
X143800000Y-92300000D03*
%TO.P,J7,3,Pin_3*%
%TO.N,Net-(J7-Pin_3)*%
X143800000Y-94840000D03*
%TD*%
D10*
%TO.P,J9,1,Pin_1*%
%TO.N,/SIGROK_ADC0*%
X163000001Y-97140003D03*
D11*
%TO.P,J9,2,Pin_2*%
%TO.N,/SIGROK_ADC1*%
X163000000Y-94600000D03*
%TO.P,J9,3,Pin_3*%
%TO.N,/SIGROK_ADC2*%
X163000001Y-92060003D03*
%TD*%
D14*
%TO.N,+3.3V*%
X170900000Y-82200000D03*
X170850000Y-78837500D03*
%TO.N,TGT_SWCLK*%
X136550000Y-91750000D03*
X137300000Y-95800000D03*
%TO.N,TGT_SWDIO*%
X137109099Y-98909099D03*
X137301471Y-102600000D03*
%TO.N,/SIGROK_IN7*%
X152600000Y-98825000D03*
X159050000Y-98750000D03*
%TD*%
D15*
%TO.N,+3.3V*%
X170850000Y-78837500D02*
X170900000Y-78887500D01*
X170900000Y-78887500D02*
X170900000Y-82200000D01*
%TO.N,TGT_SWCLK*%
X136550000Y-91750000D02*
X136550000Y-95050000D01*
X136550000Y-95050000D02*
X137300000Y-95800000D01*
%TO.N,TGT_SWDIO*%
X137109099Y-102407628D02*
X137109099Y-98909099D01*
X137301471Y-102600000D02*
X137109099Y-102407628D01*
%TO.N,/SIGROK_IN7*%
X152600000Y-98825000D02*
X152675000Y-98750000D01*
X152675000Y-98750000D02*
X159050000Y-98750000D01*
%TD*%
%TA.AperFunction,Conductor*%
%TO.N,TGT_SWDIO*%
G36*
X137629092Y-99124112D02*
G01*
X137928978Y-99248690D01*
X137935304Y-99255029D01*
X137935295Y-99263983D01*
X137934944Y-99264749D01*
X137212338Y-100702653D01*
X137205561Y-100708506D01*
X137201884Y-100709099D01*
X137016314Y-100709099D01*
X137008041Y-100705672D01*
X137005860Y-100702653D01*
X136283253Y-99264749D01*
X136282600Y-99255818D01*
X136288453Y-99249041D01*
X136289219Y-99248690D01*
X137104611Y-98909962D01*
X137113564Y-98909954D01*
X137629092Y-99124112D01*
G37*
%TD.AperFunction*%
%TD*%
%TA.AperFunction,Conductor*%
%TO.N,+3.3V*%
G36*
X171001058Y-80403427D02*
G01*
X171003239Y-80406446D01*
X171725845Y-81844349D01*
X171726498Y-81853280D01*
X171720645Y-81860057D01*
X171719879Y-81860408D01*
X170904488Y-82199135D01*
X170895534Y-82199144D01*
X170895512Y-82199135D01*
X170080120Y-81860408D01*
X170073794Y-81854069D01*
X170073803Y-81845115D01*
X170074148Y-81844361D01*
X170796761Y-80406446D01*
X170803538Y-80400593D01*
X170807215Y-80400000D01*
X170992785Y-80400000D01*
X171001058Y-80403427D01*
G37*
%TD.AperFunction*%
%TD*%
%TA.AperFunction,Conductor*%
%TO.N,TGT_SWCLK*%
G36*
X136652936Y-94312602D02*
G01*
X137636372Y-94963187D01*
X137641382Y-94970610D01*
X137640728Y-94977418D01*
X137302993Y-95793764D01*
X137296664Y-95800098D01*
X137292169Y-95800991D01*
X136412085Y-95800013D01*
X136403816Y-95796577D01*
X136400398Y-95788300D01*
X136400404Y-95787956D01*
X136449620Y-94321966D01*
X136453322Y-94313814D01*
X136461313Y-94310660D01*
X136646481Y-94310660D01*
X136652936Y-94312602D01*
G37*
%TD.AperFunction*%
%TD*%
%TA.AperFunction,Conductor*%
%TO.N,/SIGROK_IN7*%
G36*
X158710057Y-97929354D02*
G01*
X158710408Y-97930120D01*
X159049135Y-98745512D01*
X159049144Y-98754466D01*
X159049135Y-98754488D01*
X158710408Y-99569879D01*
X158704069Y-99576205D01*
X158695115Y-99576196D01*
X158694349Y-99575845D01*
X157256446Y-98853239D01*
X157250593Y-98846462D01*
X157250000Y-98842785D01*
X157250000Y-98657214D01*
X157253427Y-98648941D01*
X157256443Y-98646762D01*
X158694350Y-97924153D01*
X158703280Y-97923501D01*
X158710057Y-97929354D01*
G37*
%TD.AperFunction*%
%TD*%
%TA.AperFunction,Conductor*%
%TO.N,TGT_SWCLK*%
G36*
X137069993Y-91965013D02*
G01*
X137369879Y-92089591D01*
X137376205Y-92095930D01*
X137376196Y-92104884D01*
X137375845Y-92105650D01*
X136653239Y-93543554D01*
X136646462Y-93549407D01*
X136642785Y-93550000D01*
X136457215Y-93550000D01*
X136448942Y-93546573D01*
X136446761Y-93543554D01*
X135724154Y-92105650D01*
X135723501Y-92096719D01*
X135729354Y-92089942D01*
X135730120Y-92089591D01*
X136545512Y-91750863D01*
X136554465Y-91750855D01*
X137069993Y-91965013D01*
G37*
%TD.AperFunction*%
%TD*%
%TA.AperFunction,Conductor*%
%TO.N,/SIGROK_IN7*%
G36*
X152955064Y-97998368D02*
G01*
X152955406Y-97998516D01*
X154378234Y-98646879D01*
X154384341Y-98653428D01*
X154385082Y-98657526D01*
X154385082Y-98843141D01*
X154381655Y-98851414D01*
X154379097Y-98853350D01*
X152955889Y-99650068D01*
X152946996Y-99651119D01*
X152939965Y-99645574D01*
X152939374Y-99644358D01*
X152600863Y-98829487D01*
X152600855Y-98820534D01*
X152600864Y-98820512D01*
X152668571Y-98657526D01*
X152939772Y-98004683D01*
X152946110Y-97998359D01*
X152955064Y-97998368D01*
G37*
%TD.AperFunction*%
%TD*%
%TA.AperFunction,Conductor*%
%TO.N,TGT_SWDIO*%
G36*
X137211032Y-100841692D02*
G01*
X137212561Y-100843576D01*
X138125275Y-102243791D01*
X138126921Y-102252593D01*
X138121862Y-102259982D01*
X138119961Y-102260985D01*
X137305959Y-102599135D01*
X137297005Y-102599144D01*
X137296983Y-102599135D01*
X136482978Y-102260985D01*
X136480461Y-102259939D01*
X136474136Y-102253601D01*
X136474014Y-102244977D01*
X137006231Y-100845805D01*
X137012376Y-100839291D01*
X137017167Y-100838265D01*
X137202759Y-100838265D01*
X137211032Y-100841692D01*
G37*
%TD.AperFunction*%
%TD*%
%TA.AperFunction,Conductor*%
%TO.N,+3.3V*%
G36*
X171421346Y-79073846D02*
G01*
X171670168Y-79177211D01*
X171676494Y-79183550D01*
X171676485Y-79192504D01*
X171676263Y-79193005D01*
X171003164Y-80620843D01*
X170996537Y-80626865D01*
X170992581Y-80627554D01*
X170806975Y-80627554D01*
X170798702Y-80624127D01*
X170796683Y-80621418D01*
X170754168Y-80542773D01*
X170024668Y-79193311D01*
X170023749Y-79184405D01*
X170029397Y-79177457D01*
X170030464Y-79176948D01*
X170845512Y-78838363D01*
X170854465Y-78838355D01*
X171421346Y-79073846D01*
G37*
%TD.AperFunction*%
%TD*%
M02*
