%TF.GenerationSoftware,KiCad,Pcbnew,8.0.2*%
%TF.CreationDate,2025-07-17T16:33:11+07:00*%
%TF.ProjectId,PicoLink,5069636f-4c69-46e6-9b2e-6b696361645f,rev?*%
%TF.SameCoordinates,Original*%
%TF.FileFunction,AssemblyDrawing,Bot*%
%FSLAX46Y46*%
G04 Gerber Fmt 4.6, Leading zero omitted, Abs format (unit mm)*
G04 Created by KiCad (PCBNEW 8.0.2) date 2025-07-17 16:33:11*
%MOMM*%
%LPD*%
G01*
G04 APERTURE LIST*
%ADD10C,0.150000*%
%ADD11C,0.100000*%
G04 APERTURE END LIST*
D10*
X156383333Y-107054819D02*
X156383333Y-107769104D01*
X156383333Y-107769104D02*
X156430952Y-107911961D01*
X156430952Y-107911961D02*
X156526190Y-108007200D01*
X156526190Y-108007200D02*
X156669047Y-108054819D01*
X156669047Y-108054819D02*
X156764285Y-108054819D01*
X155764285Y-107483390D02*
X155859523Y-107435771D01*
X155859523Y-107435771D02*
X155907142Y-107388152D01*
X155907142Y-107388152D02*
X155954761Y-107292914D01*
X155954761Y-107292914D02*
X155954761Y-107245295D01*
X155954761Y-107245295D02*
X155907142Y-107150057D01*
X155907142Y-107150057D02*
X155859523Y-107102438D01*
X155859523Y-107102438D02*
X155764285Y-107054819D01*
X155764285Y-107054819D02*
X155573809Y-107054819D01*
X155573809Y-107054819D02*
X155478571Y-107102438D01*
X155478571Y-107102438D02*
X155430952Y-107150057D01*
X155430952Y-107150057D02*
X155383333Y-107245295D01*
X155383333Y-107245295D02*
X155383333Y-107292914D01*
X155383333Y-107292914D02*
X155430952Y-107388152D01*
X155430952Y-107388152D02*
X155478571Y-107435771D01*
X155478571Y-107435771D02*
X155573809Y-107483390D01*
X155573809Y-107483390D02*
X155764285Y-107483390D01*
X155764285Y-107483390D02*
X155859523Y-107531009D01*
X155859523Y-107531009D02*
X155907142Y-107578628D01*
X155907142Y-107578628D02*
X155954761Y-107673866D01*
X155954761Y-107673866D02*
X155954761Y-107864342D01*
X155954761Y-107864342D02*
X155907142Y-107959580D01*
X155907142Y-107959580D02*
X155859523Y-108007200D01*
X155859523Y-108007200D02*
X155764285Y-108054819D01*
X155764285Y-108054819D02*
X155573809Y-108054819D01*
X155573809Y-108054819D02*
X155478571Y-108007200D01*
X155478571Y-108007200D02*
X155430952Y-107959580D01*
X155430952Y-107959580D02*
X155383333Y-107864342D01*
X155383333Y-107864342D02*
X155383333Y-107673866D01*
X155383333Y-107673866D02*
X155430952Y-107578628D01*
X155430952Y-107578628D02*
X155478571Y-107531009D01*
X155478571Y-107531009D02*
X155573809Y-107483390D01*
X139304819Y-91981666D02*
X140019104Y-91981666D01*
X140019104Y-91981666D02*
X140161961Y-91934047D01*
X140161961Y-91934047D02*
X140257200Y-91838809D01*
X140257200Y-91838809D02*
X140304819Y-91695952D01*
X140304819Y-91695952D02*
X140304819Y-91600714D01*
X139638152Y-92886428D02*
X140304819Y-92886428D01*
X139257200Y-92648333D02*
X139971485Y-92410238D01*
X139971485Y-92410238D02*
X139971485Y-93029285D01*
X130084819Y-93666666D02*
X130799104Y-93666666D01*
X130799104Y-93666666D02*
X130941961Y-93619047D01*
X130941961Y-93619047D02*
X131037200Y-93523809D01*
X131037200Y-93523809D02*
X131084819Y-93380952D01*
X131084819Y-93380952D02*
X131084819Y-93285714D01*
X130084819Y-94047619D02*
X130084819Y-94666666D01*
X130084819Y-94666666D02*
X130465771Y-94333333D01*
X130465771Y-94333333D02*
X130465771Y-94476190D01*
X130465771Y-94476190D02*
X130513390Y-94571428D01*
X130513390Y-94571428D02*
X130561009Y-94619047D01*
X130561009Y-94619047D02*
X130656247Y-94666666D01*
X130656247Y-94666666D02*
X130894342Y-94666666D01*
X130894342Y-94666666D02*
X130989580Y-94619047D01*
X130989580Y-94619047D02*
X131037200Y-94571428D01*
X131037200Y-94571428D02*
X131084819Y-94476190D01*
X131084819Y-94476190D02*
X131084819Y-94190476D01*
X131084819Y-94190476D02*
X131037200Y-94095238D01*
X131037200Y-94095238D02*
X130989580Y-94047619D01*
X143254819Y-91966666D02*
X143969104Y-91966666D01*
X143969104Y-91966666D02*
X144111961Y-91919047D01*
X144111961Y-91919047D02*
X144207200Y-91823809D01*
X144207200Y-91823809D02*
X144254819Y-91680952D01*
X144254819Y-91680952D02*
X144254819Y-91585714D01*
X143254819Y-92347619D02*
X143254819Y-93014285D01*
X143254819Y-93014285D02*
X144254819Y-92585714D01*
X162454819Y-94266666D02*
X163169104Y-94266666D01*
X163169104Y-94266666D02*
X163311961Y-94219047D01*
X163311961Y-94219047D02*
X163407200Y-94123809D01*
X163407200Y-94123809D02*
X163454819Y-93980952D01*
X163454819Y-93980952D02*
X163454819Y-93885714D01*
X163454819Y-94790476D02*
X163454819Y-94980952D01*
X163454819Y-94980952D02*
X163407200Y-95076190D01*
X163407200Y-95076190D02*
X163359580Y-95123809D01*
X163359580Y-95123809D02*
X163216723Y-95219047D01*
X163216723Y-95219047D02*
X163026247Y-95266666D01*
X163026247Y-95266666D02*
X162645295Y-95266666D01*
X162645295Y-95266666D02*
X162550057Y-95219047D01*
X162550057Y-95219047D02*
X162502438Y-95171428D01*
X162502438Y-95171428D02*
X162454819Y-95076190D01*
X162454819Y-95076190D02*
X162454819Y-94885714D01*
X162454819Y-94885714D02*
X162502438Y-94790476D01*
X162502438Y-94790476D02*
X162550057Y-94742857D01*
X162550057Y-94742857D02*
X162645295Y-94695238D01*
X162645295Y-94695238D02*
X162883390Y-94695238D01*
X162883390Y-94695238D02*
X162978628Y-94742857D01*
X162978628Y-94742857D02*
X163026247Y-94790476D01*
X163026247Y-94790476D02*
X163073866Y-94885714D01*
X163073866Y-94885714D02*
X163073866Y-95076190D01*
X163073866Y-95076190D02*
X163026247Y-95171428D01*
X163026247Y-95171428D02*
X162978628Y-95219047D01*
X162978628Y-95219047D02*
X162883390Y-95266666D01*
D11*
%TO.C,J8*%
X147160000Y-106965000D02*
X147795000Y-106330000D01*
X147160000Y-108870000D02*
X147160000Y-106965000D01*
X147795000Y-106330000D02*
X164940000Y-106330000D01*
X164940000Y-106330000D02*
X164940000Y-108870000D01*
X164940000Y-108870000D02*
X147160000Y-108870000D01*
%TO.C,J4*%
X138580000Y-88505000D02*
X140485000Y-88505000D01*
X138580000Y-96125000D02*
X138580000Y-88505000D01*
X140485000Y-88505000D02*
X141120000Y-89140000D01*
X141120000Y-89140000D02*
X141120000Y-96125000D01*
X141120000Y-96125000D02*
X138580000Y-96125000D01*
%TO.C,J3*%
X126180000Y-83820000D02*
X134080000Y-83820000D01*
X126180000Y-104180000D02*
X126180000Y-83820000D01*
X127380000Y-85010000D02*
X133880000Y-85010000D01*
X127380000Y-102990000D02*
X127380000Y-85010000D01*
X133880000Y-85010000D02*
X133880000Y-91950000D01*
X133880000Y-91950000D02*
X135080000Y-91950000D01*
X133880000Y-96050000D02*
X133880000Y-96050000D01*
X133880000Y-96050000D02*
X133880000Y-102990000D01*
X133880000Y-102990000D02*
X127380000Y-102990000D01*
X134080000Y-83820000D02*
X135080000Y-84820000D01*
X135080000Y-84820000D02*
X135080000Y-104180000D01*
X135080000Y-96050000D02*
X133880000Y-96050000D01*
X135080000Y-104180000D02*
X126180000Y-104180000D01*
%TO.C,J7*%
X142530000Y-88490000D02*
X144435000Y-88490000D01*
X142530000Y-96110000D02*
X142530000Y-88490000D01*
X144435000Y-88490000D02*
X145070000Y-89125000D01*
X145070000Y-89125000D02*
X145070000Y-96110000D01*
X145070000Y-96110000D02*
X142530000Y-96110000D01*
%TO.C,J9*%
X161730003Y-90790002D02*
X164270002Y-90790003D01*
X161730003Y-97775002D02*
X161730003Y-90790002D01*
X162365002Y-98410003D02*
X161730003Y-97775002D01*
X164269999Y-98410001D02*
X162365002Y-98410003D01*
X164270002Y-90790003D02*
X164269999Y-98410001D01*
%TD*%
M02*
